<svg width="240" height="25" viewBox="0 0 240 25" fill="none" xmlns="http://www.w3.org/2000/svg">
<rect width="24.2968" height="24.2962" rx="12.1481" fill="#171616"/>
<g filter="url(#filter0_d_1647_224)">
<rect x="7.59375" y="7.5918" width="9.1113" height="9.11107" rx="4.55553" fill="url(#paint0_linear_1647_224)"/>
</g>
<rect x="1" y="1" width="22.2968" height="22.2962" rx="11.1481" stroke="url(#paint1_linear_1647_224)" stroke-width="2"/>
<path d="M235.648 7.62109L235.745 11.1197L235.526 10.9497C235.688 9.79965 236.028 8.95738 236.547 8.42287C237.065 7.88835 237.81 7.62109 238.782 7.62109H239.997V9.75916H238.758C238.093 9.75916 237.543 9.88064 237.105 10.1236C236.684 10.3666 236.368 10.731 236.158 11.2169C235.963 11.6867 235.866 12.2779 235.866 12.9905V20.4981H233.242V7.62109H235.648Z" fill="white"/>
<path d="M219.258 14.0621C219.258 12.7015 219.509 11.5191 220.011 10.5148C220.529 9.49439 221.25 8.70882 222.173 8.1581C223.097 7.60739 224.174 7.33203 225.405 7.33203C226.458 7.33203 227.413 7.57499 228.272 8.06092C229.147 8.53064 229.843 9.26763 230.361 10.2719C230.896 11.2599 231.188 12.4909 231.236 13.9649V14.8153H222.028C222.109 15.9977 222.441 16.9209 223.024 17.585C223.607 18.2329 224.401 18.5569 225.405 18.5569C226.053 18.5569 226.636 18.3868 227.154 18.0466C227.673 17.7065 228.069 17.2287 228.345 16.6132L231.066 16.8075C230.677 18.0224 229.965 18.9942 228.928 19.7231C227.907 20.4358 226.733 20.7921 225.405 20.7921C224.174 20.7921 223.097 20.5168 222.173 19.966C221.25 19.4153 220.529 18.6379 220.011 17.6336C219.509 16.6132 219.258 15.4227 219.258 14.0621ZM228.491 12.8473C228.329 11.7134 227.972 10.8874 227.422 10.3691C226.871 9.83454 226.199 9.56728 225.405 9.56728C224.482 9.56728 223.728 9.85883 223.145 10.4419C222.578 11.0089 222.214 11.8106 222.052 12.8473H228.491Z" fill="white"/>
<path d="M209.905 3.24805V13.9384L215.566 7.62136H218.895L213.866 13.0151L219.138 20.4983H216.077L212.141 14.6673L209.905 17.0969V20.4983H207.281V3.24805H209.905Z" fill="white"/>
<path d="M202.697 12.1427C202.568 11.349 202.227 10.7254 201.677 10.2719C201.126 9.81834 200.478 9.59158 199.733 9.59158C198.648 9.59158 197.805 9.98841 197.206 10.7821C196.607 11.5596 196.307 12.6529 196.307 14.0621C196.307 15.4713 196.607 16.5727 197.206 17.3664C197.805 18.1438 198.648 18.5326 199.733 18.5326C200.511 18.5326 201.175 18.2896 201.725 17.8037C202.292 17.3178 202.641 16.6375 202.77 15.7628L205.516 15.9086C205.386 16.8966 205.046 17.7632 204.495 18.5083C203.961 19.2372 203.28 19.8041 202.454 20.209C201.628 20.5977 200.721 20.7921 199.733 20.7921C198.502 20.7921 197.425 20.5168 196.502 19.966C195.578 19.4153 194.857 18.6379 194.339 17.6336C193.837 16.6132 193.586 15.4227 193.586 14.0621C193.586 12.7015 193.837 11.5191 194.339 10.5148C194.857 9.49439 195.578 8.70882 196.502 8.1581C197.425 7.60739 198.502 7.33203 199.733 7.33203C200.689 7.33203 201.58 7.5264 202.406 7.91514C203.232 8.28768 203.912 8.8303 204.447 9.54298C204.981 10.2395 205.305 11.0574 205.418 11.9969L202.697 12.1427Z" fill="white"/>
<path d="M180.422 11.4867C180.681 10.1909 181.288 9.17854 182.244 8.44966C183.216 7.70457 184.447 7.33203 185.937 7.33203C187.703 7.33203 189.047 7.80176 189.97 8.74121C190.91 9.66447 191.38 11.017 191.38 12.7987V17.585C191.38 17.8766 191.444 18.0952 191.574 18.241C191.704 18.3706 191.898 18.4354 192.157 18.4354H192.692V20.5006H191.866H191.744C191.307 20.5168 190.886 20.4763 190.481 20.3791C190.076 20.2819 189.727 20.0875 189.436 19.796C189.161 19.5044 189.007 19.0833 188.974 18.5326C188.667 19.1805 188.156 19.7231 187.444 20.1604C186.731 20.5815 185.864 20.7921 184.844 20.7921C183.516 20.7921 182.406 20.4601 181.515 19.796C180.64 19.1319 180.203 18.241 180.203 17.1234C180.203 16.2973 180.397 15.6332 180.786 15.1311C181.175 14.629 181.71 14.2402 182.39 13.9649C183.07 13.6895 183.969 13.4385 185.087 13.2117L188.756 12.5071C188.739 11.4705 188.496 10.7092 188.027 10.2233C187.573 9.72116 186.877 9.4701 185.937 9.4701C185.208 9.4701 184.601 9.65637 184.115 10.0289C183.629 10.4014 183.297 10.9441 183.119 11.6568L180.422 11.4867ZM182.924 17.0748C182.924 17.5769 183.135 17.99 183.556 18.3139C183.977 18.6217 184.593 18.7755 185.403 18.7755C186.051 18.7755 186.634 18.6217 187.152 18.3139C187.67 17.99 188.075 17.5202 188.367 16.9047C188.658 16.273 188.804 15.5117 188.804 14.6209V14.4994L186.083 14.9853L185.646 15.0582C184.981 15.1716 184.471 15.285 184.115 15.3984C183.759 15.5117 183.467 15.7061 183.24 15.9815C183.03 16.2406 182.924 16.6051 182.924 17.0748Z" fill="white"/>
<path d="M174.882 7.62109L174.979 11.1197L174.76 10.9497C174.922 9.79965 175.263 8.95738 175.781 8.42287C176.299 7.88835 177.044 7.62109 178.016 7.62109H179.231V9.75916H177.992C177.328 9.75916 176.777 9.88064 176.34 10.1236C175.919 10.3666 175.603 10.731 175.392 11.2169C175.198 11.6867 175.101 12.2779 175.101 12.9905V20.4981H172.477V7.62109H174.882Z" fill="white"/>
<path d="M170.975 5.67767H165.703V20.4983H163.03V5.67767H157.758V3.24805H170.975V5.67767Z" fill="white"/>
<path d="M139.602 14.0621C139.602 12.7015 139.853 11.5191 140.355 10.5148C140.873 9.49439 141.594 8.70882 142.517 8.1581C143.44 7.60739 144.518 7.33203 145.749 7.33203C146.802 7.33203 147.757 7.57499 148.616 8.06092C149.49 8.53064 150.187 9.26763 150.705 10.2719C151.24 11.2599 151.531 12.4909 151.58 13.9649V14.8153H142.371C142.452 15.9977 142.784 16.9209 143.368 17.585C143.951 18.2329 144.744 18.5569 145.749 18.5569C146.397 18.5569 146.98 18.3868 147.498 18.0466C148.016 17.7065 148.413 17.2287 148.689 16.6132L151.41 16.8075C151.021 18.0224 150.308 18.9942 149.272 19.7231C148.251 20.4358 147.077 20.7921 145.749 20.7921C144.518 20.7921 143.44 20.5168 142.517 19.966C141.594 19.4153 140.873 18.6379 140.355 17.6336C139.853 16.6132 139.602 15.4227 139.602 14.0621ZM148.834 12.8473C148.672 11.7134 148.316 10.8874 147.765 10.3691C147.215 9.83454 146.542 9.56728 145.749 9.56728C144.825 9.56728 144.072 9.85883 143.489 10.4419C142.922 11.0089 142.558 11.8106 142.396 12.8473H148.834Z" fill="white"/>
<path d="M135.276 11.681C135.146 11.017 134.806 10.4905 134.255 10.1018C133.704 9.71306 133.089 9.51869 132.409 9.51869C131.728 9.51869 131.17 9.68066 130.732 10.0046C130.295 10.3286 130.076 10.7578 130.076 11.2923C130.076 11.8106 130.335 12.2156 130.854 12.5071C131.388 12.7825 132.069 13.0011 132.895 13.1631C134.061 13.3737 135.017 13.6328 135.762 13.9406C136.523 14.2321 137.114 14.6371 137.535 15.1554C137.956 15.6575 138.167 16.3216 138.167 17.1477C138.167 17.9576 137.916 18.6379 137.414 19.1886C136.928 19.7231 136.288 20.128 135.494 20.4034C134.701 20.6625 133.834 20.7921 132.895 20.7921C131.793 20.7921 130.813 20.6139 129.955 20.2576C129.096 19.9013 128.408 19.3991 127.889 18.7512C127.387 18.0871 127.104 17.3178 127.039 16.4431L129.736 16.273C129.833 16.7589 130.011 17.1801 130.271 17.5364C130.546 17.8766 130.902 18.1438 131.34 18.3382C131.777 18.5164 132.287 18.6055 132.87 18.6055C133.551 18.6055 134.15 18.484 134.668 18.241C135.187 17.9819 135.446 17.5769 135.446 17.0262C135.446 16.6537 135.332 16.354 135.106 16.1272C134.895 15.9005 134.628 15.7385 134.304 15.6413C133.996 15.5279 133.559 15.4065 132.992 15.2769C132.862 15.2607 132.676 15.2283 132.433 15.1797C131.332 14.9367 130.433 14.6857 129.736 14.4265C129.04 14.1512 128.464 13.7705 128.011 13.2846C127.574 12.7987 127.355 12.167 127.355 11.3895C127.355 10.5634 127.565 9.85073 127.987 9.25143C128.424 8.63593 129.031 8.1662 129.809 7.84225C130.603 7.5021 131.534 7.33203 132.603 7.33203C134.012 7.33203 135.203 7.71267 136.175 8.47395C137.147 9.21903 137.746 10.2395 137.973 11.5353L135.276 11.681Z" fill="white"/>
<path d="M113.875 11.4867C114.134 10.1909 114.742 9.17854 115.697 8.44966C116.669 7.70457 117.9 7.33203 119.39 7.33203C121.156 7.33203 122.5 7.80176 123.424 8.74121C124.363 9.66447 124.833 11.017 124.833 12.7987V17.585C124.833 17.8766 124.898 18.0952 125.027 18.241C125.157 18.3706 125.351 18.4354 125.61 18.4354H126.145V20.5006H125.319H125.197C124.76 20.5168 124.339 20.4763 123.934 20.3791C123.529 20.2819 123.181 20.0875 122.889 19.796C122.614 19.5044 122.46 19.0833 122.427 18.5326C122.12 19.1805 121.609 19.7231 120.897 20.1604C120.184 20.5815 119.317 20.7921 118.297 20.7921C116.969 20.7921 115.859 20.4601 114.968 19.796C114.094 19.1319 113.656 18.241 113.656 17.1234C113.656 16.2973 113.851 15.6332 114.239 15.1311C114.628 14.629 115.163 14.2402 115.843 13.9649C116.523 13.6895 117.422 13.4385 118.54 13.2117L122.209 12.5071C122.193 11.4705 121.95 10.7092 121.48 10.2233C121.026 9.72116 120.33 9.4701 119.39 9.4701C118.661 9.4701 118.054 9.65637 117.568 10.0289C117.082 10.4014 116.75 10.9441 116.572 11.6568L113.875 11.4867ZM116.377 17.0748C116.377 17.5769 116.588 17.99 117.009 18.3139C117.43 18.6217 118.046 18.7755 118.856 18.7755C119.504 18.7755 120.087 18.6217 120.605 18.3139C121.123 17.99 121.528 17.5202 121.82 16.9047C122.112 16.273 122.257 15.5117 122.257 14.6209V14.4994L119.536 14.9853L119.099 15.0582C118.435 15.1716 117.924 15.285 117.568 15.3984C117.212 15.5117 116.92 15.7061 116.693 15.9815C116.483 16.2406 116.377 16.6051 116.377 17.0748Z" fill="white"/>
<path d="M100.102 14.0621C100.102 12.7015 100.353 11.5191 100.855 10.5148C101.373 9.49439 102.094 8.70882 103.017 8.1581C103.94 7.60739 105.018 7.33203 106.249 7.33203C107.302 7.33203 108.257 7.57499 109.116 8.06092C109.99 8.53064 110.687 9.26763 111.205 10.2719C111.74 11.2599 112.031 12.4909 112.08 13.9649V14.8153H102.871C102.952 15.9977 103.284 16.9209 103.868 17.585C104.451 18.2329 105.244 18.5569 106.249 18.5569C106.897 18.5569 107.48 18.3868 107.998 18.0466C108.516 17.7065 108.913 17.2287 109.189 16.6132L111.91 16.8075C111.521 18.0224 110.808 18.9942 109.772 19.7231C108.751 20.4358 107.577 20.7921 106.249 20.7921C105.018 20.7921 103.94 20.5168 103.017 19.966C102.094 19.4153 101.373 18.6379 100.855 17.6336C100.353 16.6132 100.102 15.4227 100.102 14.0621ZM109.334 12.8473C109.172 11.7134 108.816 10.8874 108.265 10.3691C107.715 9.83454 107.042 9.56728 106.249 9.56728C105.325 9.56728 104.572 9.85883 103.989 10.4419C103.422 11.0089 103.058 11.8106 102.896 12.8473H109.334Z" fill="white"/>
<path d="M97.1553 3.24805V17.5099C97.1553 17.7853 97.2282 17.9958 97.374 18.1416C97.5198 18.2874 97.7303 18.3603 98.0057 18.3603H99.0505V20.4983H97.4226C96.5641 20.4983 95.8676 20.2392 95.333 19.7209C94.7985 19.1863 94.5312 18.4818 94.5312 17.6071V3.24805H97.1553Z" fill="white"/>
<path d="M80.375 14.0621C80.375 12.7015 80.6261 11.5191 81.1282 10.5148C81.6465 9.49439 82.3673 8.70882 83.2906 8.1581C84.2139 7.60739 85.2911 7.33203 86.5221 7.33203C87.575 7.33203 88.5306 7.57499 89.3891 8.06092C90.2638 8.53064 90.9603 9.26763 91.4786 10.2719C92.0132 11.2599 92.3047 12.4909 92.3533 13.9649V14.8153H83.1448C83.2258 15.9977 83.5579 16.9209 84.141 17.585C84.7241 18.2329 85.5178 18.5569 86.5221 18.5569C87.17 18.5569 87.7531 18.3868 88.2715 18.0466C88.7898 17.7065 89.1866 17.2287 89.462 16.6132L92.1832 16.8075C91.7945 18.0224 91.0818 18.9942 90.0451 19.7231C89.0247 20.4358 87.8503 20.7921 86.5221 20.7921C85.2911 20.7921 84.2139 20.5168 83.2906 19.966C82.3673 19.4153 81.6465 18.6379 81.1282 17.6336C80.6261 16.6132 80.375 15.4227 80.375 14.0621ZM89.6078 12.8473C89.4458 11.7134 89.0895 10.8874 88.5387 10.3691C87.988 9.83454 87.3158 9.56728 86.5221 9.56728C85.5988 9.56728 84.8456 9.85883 84.2625 10.4419C83.6956 11.0089 83.3311 11.8106 83.1691 12.8473H89.6078Z" fill="white"/>
<path d="M72.8847 3.24805C74.0833 3.24805 75.1281 3.45861 76.019 3.87975C76.926 4.28468 77.6225 4.88399 78.1085 5.67767C78.6106 6.47134 78.8617 7.39459 78.8617 8.44743C78.8617 9.20871 78.6916 9.8971 78.3514 10.5126C78.0275 11.1281 77.5821 11.6221 77.0151 11.9947C76.4482 12.351 75.8489 12.5616 75.2172 12.6264L74.5854 12.4077C75.9299 12.4077 76.9017 12.6426 77.5011 13.1123C78.1004 13.5658 78.4567 14.3514 78.5701 15.469L79.0318 20.4983H76.3348L75.9461 15.8092C75.8813 15.0641 75.5897 14.5458 75.0714 14.2542C74.553 13.9465 73.7027 13.7926 72.5202 13.7926H68.657V20.4983H65.9844V3.24805H72.8847ZM72.7146 11.3387C73.7998 11.3387 74.634 11.1038 75.2172 10.6341C75.8165 10.1482 76.1161 9.44357 76.1161 8.52032C76.1161 7.61326 75.8165 6.91677 75.2172 6.43085C74.634 5.92873 73.7998 5.67767 72.7146 5.67767H68.657V11.3387H72.7146Z" fill="white"/>
<path d="M57.368 3.24805V20.4983H54.6953V3.24805H57.368Z" fill="white"/>
<path d="M43.2044 3.24805H46.5816L52.8016 20.4983H49.9589L48.4039 16.0278H41.3821L39.8271 20.4983H36.9844L43.2044 3.24805ZM47.5778 13.5982L44.9051 5.79915L42.2082 13.5982H47.5778Z" fill="white"/>
<defs>
<filter id="filter0_d_1647_224" x="3.59375" y="7.5918" width="17.1094" height="17.1113" filterUnits="userSpaceOnUse" color-interpolation-filters="sRGB">
<feFlood flood-opacity="0" result="BackgroundImageFix"/>
<feColorMatrix in="SourceAlpha" type="matrix" values="0 0 0 0 0 0 0 0 0 0 0 0 0 0 0 0 0 0 127 0" result="hardAlpha"/>
<feOffset dy="4"/>
<feGaussianBlur stdDeviation="2"/>
<feComposite in2="hardAlpha" operator="out"/>
<feColorMatrix type="matrix" values="0 0 0 0 0 0 0 0 0 0 0 0 0 0 0 0 0 0 0.85 0"/>
<feBlend mode="normal" in2="BackgroundImageFix" result="effect1_dropShadow_1647_224"/>
<feBlend mode="normal" in="SourceGraphic" in2="effect1_dropShadow_1647_224" result="shape"/>
</filter>
<linearGradient id="paint0_linear_1647_224" x1="12.1494" y1="7.5918" x2="12.1494" y2="16.7029" gradientUnits="userSpaceOnUse">
<stop stop-color="white"/>
<stop offset="1" stop-color="#999999"/>
</linearGradient>
<linearGradient id="paint1_linear_1647_224" x1="12.1484" y1="0" x2="12.1484" y2="24.2962" gradientUnits="userSpaceOnUse">
<stop stop-color="white"/>
<stop offset="1" stop-color="#999999"/>
</linearGradient>
</defs>
</svg>
