<svg xmlns="http://www.w3.org/2000/svg" width="219" height="20" fill="none"><path fill="#fff" d="M211.445 18.41V5.94h2.504v1.85c.819-1.498 2.105-2.177 3.556-2.177.491 0 .959.117 1.193.328V8.14c-.374-.117-.819-.164-1.334-.164-2.386 0-3.415 1.45-3.415 3.627v6.808zM209.034 14.34c-.679 2.901-2.831 4.375-5.755 4.375-3.674 0-5.92-2.457-5.92-6.527 0-4.235 2.246-6.575 5.803-6.575 3.602 0 5.778 2.433 5.778 6.434v.608h-9.03c.14 2.55 1.333 3.978 3.369 3.978 1.59 0 2.713-.749 3.135-2.293zm-5.872-6.644c-1.802 0-2.878 1.146-3.182 3.252h6.363c-.304-2.106-1.403-3.252-3.181-3.252M186.359 18.411V1.566h2.504v9.663l4.96-5.288h2.994l-5.381 5.545 5.709 6.925h-3.112l-5.17-6.223v6.223zM183.949 10.292h-2.504c-.304-1.778-1.45-2.573-2.901-2.573-2.082 0-3.205 1.59-3.205 4.469 0 2.83 1.17 4.445 3.276 4.445 1.497 0 2.55-.82 2.924-2.41h2.48c-.538 3.112-2.69 4.492-5.451 4.492-3.603 0-5.779-2.48-5.779-6.527 0-4.235 2.223-6.575 5.755-6.575 2.785 0 4.984 1.568 5.405 4.68M162.284 10.012h-2.503c.397-2.761 2.292-4.399 5.404-4.399 3.392 0 5.077 1.989 5.077 4.89v4.866c0 1.498.14 2.363.421 3.042h-2.62c-.188-.468-.258-1.123-.281-1.825-1.053 1.474-2.667 2.129-4.165 2.129-2.526 0-4.258-1.193-4.258-3.58 0-1.707.936-2.97 2.808-3.603 1.661-.561 3.345-.701 5.591-.725v-.28c0-1.825-.842-2.808-2.76-2.808-1.615 0-2.48.889-2.714 2.293m-.398 5.03c0 1.053.866 1.708 2.199 1.708a3.65 3.65 0 0 0 3.673-3.674v-.561c-4.796.047-5.872 1.1-5.872 2.527M151.141 18.41V5.94h2.503v1.85c.819-1.498 2.106-2.177 3.556-2.177.491 0 .959.117 1.193.328V8.14c-.374-.117-.819-.164-1.333-.164-2.387 0-3.416 1.45-3.416 3.627v6.808zM142.123 18.411V4.701h-5.311V2.502h13.219v2.2h-5.287v13.71zM135.229 14.34c-.678 2.901-2.831 4.375-5.755 4.375-3.673 0-5.919-2.457-5.919-6.527 0-4.235 2.246-6.575 5.802-6.575 3.603 0 5.779 2.433 5.779 6.434v.608h-9.031c.14 2.55 1.333 3.978 3.369 3.978 1.591 0 2.714-.749 3.135-2.293zm-5.872-6.644c-1.802 0-2.878 1.146-3.182 3.252h6.364c-.304-2.106-1.404-3.252-3.182-3.252M113.917 9.216c0 3.182 7.978.515 7.978 5.592 0 2.363-2.129 3.907-5.147 3.907s-5.147-1.404-5.615-4.375h2.503c.258 1.567 1.427 2.433 3.182 2.433 1.684 0 2.574-.749 2.574-1.801 0-3.112-7.861-.492-7.861-5.615 0-1.942 1.52-3.744 4.679-3.744 2.784 0 4.843 1.287 5.24 4.399h-2.503c-.281-1.755-1.263-2.41-2.854-2.41-1.381 0-2.176.678-2.176 1.614M100.807 10.012h-2.503c.398-2.761 2.293-4.399 5.404-4.399 3.393 0 5.077 1.989 5.077 4.89v4.866c0 1.498.141 2.363.421 3.042h-2.62c-.187-.468-.257-1.123-.281-1.825-1.053 1.474-2.667 2.129-4.164 2.129-2.527 0-4.258-1.193-4.258-3.58 0-1.707.936-2.97 2.807-3.603 1.661-.561 3.346-.701 5.592-.725v-.28c0-1.825-.842-2.808-2.761-2.808-1.614 0-2.48.889-2.714 2.293m-.397 5.03c0 1.053.865 1.708 2.199 1.708a3.65 3.65 0 0 0 3.673-3.674v-.561c-4.796.047-5.872 1.1-5.872 2.527M96.026 14.34c-.678 2.901-2.83 4.375-5.755 4.375-3.673 0-5.92-2.457-5.92-6.527 0-4.235 2.247-6.575 5.803-6.575 3.603 0 5.779 2.433 5.779 6.434v.608h-9.031c.14 2.55 1.333 3.978 3.369 3.978 1.59 0 2.714-.749 3.135-2.293zm-5.872-6.644c-1.802 0-2.878 1.146-3.182 3.252h6.364c-.305-2.106-1.404-3.252-3.182-3.252M79.438 18.411V1.566h2.503v16.845zM77.018 14.34c-.678 2.901-2.83 4.375-5.755 4.375-3.673 0-5.92-2.457-5.92-6.527 0-4.235 2.247-6.575 5.803-6.575 3.603 0 5.779 2.433 5.779 6.434v.608h-9.031c.14 2.55 1.334 3.978 3.369 3.978 1.59 0 2.714-.749 3.135-2.293zm-5.872-6.644c-1.802 0-2.878 1.146-3.182 3.252h6.364c-.304-2.106-1.404-3.252-3.182-3.252M51.406 18.411V2.501h5.966c3.44.001 5.615 1.779 5.615 4.587 0 1.801-.819 3.064-2.246 3.766.936.492 1.45 1.357 1.802 2.784l1.193 4.773h-2.76l-.96-4.258c-.421-1.825-1.123-2.176-2.878-2.176h-3.111v6.434zm5.896-13.803h-3.275v5.264h3.228c1.942 0 3.042-1.03 3.042-2.644 0-1.591-1.1-2.62-2.995-2.62M45.375 18.411V2.501h2.62v15.91zM40.524 18.411l-1.357-3.58h-7.252l-1.357 3.58h-2.62l6.13-15.91h3.064l6.13 15.91zm-5.45-11.838-2.364 6.2h5.662l-2.363-6.2-.468-1.544zM10 0c5.523 0 10 4.477 10 10s-4.477 10-10 10S0 15.523 0 10 4.477 0 10 0m0 6a4 4 0 1 0 0 8 4 4 0 0 0 0-8"/></svg>
